<svg xmlns="http://www.w3.org/2000/svg" viewBox="0 0 285.99 145.59"><defs><style>.cls-1{fill:#bb2527;}.cls-2{fill:#cdcdb8;}.cls-3{fill:#cfceb9;}.cls-4{fill:#298641;}.cls-5{fill:#328240;}.cls-6{fill:#c82227;}.cls-7{fill:#c12227;}.cls-8{fill:#c92227;}.cls-9{fill:#bd2226;}.cls-10{fill:#be2427;}.cls-11{fill:#d7c4b6;}.cls-12{fill:#be2628;}.cls-13{fill:#be2527;}.cls-14{fill:#26803f;}.cls-15{fill:#cbc7b5;}.cls-16{fill:#298340;}.cls-17{fill:#cbc9b6;}.cls-18{fill:#268642;}.cls-19{fill:#d8242c;}.cls-20{fill:#cf2228;}.cls-21{fill:#dd262d;}.cls-22{fill:#c62327;}.cls-23{fill:#d0262d;}.cls-24{fill:#d2232b;}.cls-25{fill:#c7c5b2;}.cls-26{fill:#c0caaf;}.cls-27{fill:#b8c5a2;}.cls-28{fill:#d32328;}.cls-29{fill:#e52630;}.cls-30{fill:#e1262e;}.cls-31{fill:#311613;}.cls-32{fill:#261414;}.cls-33{fill:#2a1513;}.cls-34{fill:#251512;}.cls-35{fill:#2e1713;}.cls-36{fill:#a3242a;}</style></defs><g id="Layer_2" data-name="Layer 2"><g id="Layer_1-2" data-name="Layer 1"><path class="cls-1" d="M16.94.22l251.92,0c2.21,1,2.46,3.06,2.31,5.06-.94,12.72-2.14,25.4-7,37.38a148.44,148.44,0,0,1-7.72,17.11c-.93,1.72-1.52,3.71-3.54,4.59-2.58-.58-1.53-2.42-1.24-3.86.49-2.41,2.17-4.33,2.94-6.65,1.24-2.26,2-4.73,3-7.09a15,15,0,0,0,2.19-4.92c.45-1.29.85-2.6,1.32-3.89a11.12,11.12,0,0,0,1.38-5.2c-1-3.7,3.49-6.77,1.35-11-2.65,1.17-1.35,3.59-2.11,5.16-.52,1.09-1.06,2.29-2.35,2.18s-1.49-1.54-1.65-2.66c-.3-2.1.78-4.25-.23-6.33-1.59-2.76-4.48-3.55-7.16-3.88-8.72-1.06-15.81-6.16-23.77-9.06-.9-.33-2-.76-1.67-2s1.44-1.11,2.44-1.26c3.75-.55,7.53-.06,11.28-.41.66-.17-.36-.7,0-.12.09.15-.05.25-.4.24a106.08,106.08,0,0,0-17.8.94c-29.61-1.82-59.23-.64-88.84-1-15.64-.17-31.29.12-46.94.2-6.64,0-13.25,1.38-19.92.57-5-1.42-10.23-.87-15.35-.73-6.28.17-12.53,1.59-18.86.56-2-.32-2.66.42-2.35,2.5A79.18,79.18,0,0,1,29.23,15c.08,2.61.51,5.45-2.53,7-1.7,1.08-4.54-.43-5.47,2.41a9.57,9.57,0,0,0,.84,3.73c1,3.18,2.33,6.29,2.05,9.7,1-.32,1.25-2.27,2.64-1.57a3.11,3.11,0,0,1,1.47,3.45c-1.53,5.67,1.27,10.26,3.43,15,1,2.32,2,4.66,3.08,7a3.74,3.74,0,0,1,.5,2.84,1.43,1.43,0,0,1-2,.62c-5.49-5.42-7.51-12.74-10.35-19.54-5.49-13.13-7.65-27-7.83-41.18C15.06,2.76,15,1,16.94.22Z"/><path class="cls-2" d="M16.94.22c-1.27,9.18,0,18.23,1.91,27.15A112.12,112.12,0,0,0,34,65.05c2.33,1.3,2.48,3.86,3.47,5.94.14.83.21,1.82-.48,2.28-2.91,2-1.94,3.87-.19,6,1.15,1.4,2.38,3.06-.46,4.13-2.39-.47-3.44-2.48-4.67-4.19C22.5,66.45,16.25,52.27,11.47,37.38c-3.18-10.43-4-21.23-4.91-32C6.4,3.55,6.42,1.7,7.75.18Z"/><path class="cls-3" d="M262.8,42.91A122.25,122.25,0,0,0,269.45,8c.12-2.61.78-5.28-.6-7.78L278,.24c2,2.87,1.42,6.15,1,9.16-.83,5.57-.77,11.24-2,16.75a36.55,36.55,0,0,0-.87,4c-2.5,9.45-4.92,18.94-9.82,27.54a15.52,15.52,0,0,1-3.13,4.45c-2.42-.93-2.42-.93-2.38-3.56-.86,1.81-1.26,3.86-2.74,5.35-2.06,2.1-3,1.16-3.56-1.17C257.92,56.42,261.84,50.28,262.8,42.91Z"/><path class="cls-4" d="M7.75.18c.84,12.76,1.88,25.49,5.11,37.92-.58,1.19-.28,2.64-1.09,3.76A10.27,10.27,0,0,1,11.1,43c-1.16,2.83-3,3.39-5.59,1.73-3.73-7.59-4-15.9-5.1-24C.19,19.09.72,17.4,0,15.82L.09.18Z"/><path class="cls-5" d="M286,1.06c.06,14.3-1.28,28.4-6.14,42-3.54-1.33-2-4-1.38-6.12a114,114,0,0,0,4.2-31,1.24,1.24,0,0,0-.81-1.35c-1.59,4.09-1.22,8.41-1.79,12.59-.52,3.78,0,8.09-3.65,10.86-.28.2-.64,0-.82-.36a.91.91,0,0,1,.12-.88L278,.24C280.69.43,283.5-.84,286,1.06Z"/><path class="cls-6" d="M258.84,47.06l-3,7c-3.45,1.15-6.71,2.4-6.13,7.11a1.94,1.94,0,0,1-1.67,2.1c-3,.62-3.33,2.68-2.84,5.2a2.16,2.16,0,0,1-2,1.85c-6.94.06-11.55,4.45-16.09,8.78-3.23,3.08-6.42,6.22-9.43,9.52-7,7.68-15.65,10-25.66,8.44a4.88,4.88,0,0,1-1.38-.56,21.13,21.13,0,0,1-5.83-6.76c-1.3-2.44-.63-4.44,2.36-4.55,5.3-.21,9.41-2.93,13.51-5.78C207,75,214.38,72,219.92,66.26,230.23,55.58,242.21,46.21,246.53,31a17.87,17.87,0,0,0,1-5.87c-.27-4.91-2.84-7.41-7.79-7.81-1.81-.15-4.1.63-5-2,.29-.42.59-.93,1.08-1,8.42-1.11,16.26.21,23.07,5.69,2.35,2.55-1.8,5.63.74,8.23,2.08-1.43.88-3.61,1.27-5.41.25-1.12-.67-3.41,1.17-3,1.22.29,3.85,0,4,3.2.13,3.64-3.41,6.25-2.17,10-1.86,1.2-1.12,3.42-2,5a6.75,6.75,0,0,1-1,4C259.1,43.3,259.73,45.49,258.84,47.06Z"/><path class="cls-7" d="M258.86,20.07c-7.54-4.11-15.36-6.54-24-4-5.62,2.68-11.89,3.47-17.53,6.06-3.39.43-6.12,2.47-9.09,3.88-1.69.79-2.84,3.16-5.16,1.7-2.67-1.68-.55-3.76.16-5.86a34.85,34.85,0,0,0-13.68.17c-7.52,1.81-14.15-.94-20.78-3.71a2,2,0,0,1-.86-3.3A11.84,11.84,0,0,1,171,11.86c1.79-1.16.19-2.4-.09-3.43-1.46-5.33-1.2-5.83,4.21-5.83,14,0,27.92-.27,41.86.95,1.58.14,3.32.54,4.85-.47h18.88c-5,1.65-10.26.13-15.17,2.37,3.66.22,8.9,1.72,9.77,3.13,3.65,5.93,9.91,3.73,14.56,6a42.28,42.28,0,0,0,6.78,2.47A3,3,0,0,1,258.86,20.07Z"/><path class="cls-8" d="M30.88,55.07c-4.47-5.3-4.44-11.71-3.86-18.42-2,1-1.73,2.56-2.51,3.55,0,0-.36-.07-.4-.17a6,6,0,0,1-.24-1c-1.46-5.37,1.4-10,2.57-14.89a2.71,2.71,0,0,1,2.22-.79c5,2,10.71,1.77,15.34,4.93,0,.5.11,1.12-.22,1.43-4,3.64-2.79,7.53-.15,11,3.74,5,6.72,10.59,12.06,14.22a19.5,19.5,0,0,1,4.88,4.92c4.87,6.82,12,11.34,17.71,17.27.74.77,1.8.74,2.78.9,2.37.37,5,1,5.13,3.79.14,2.51-2.29,3.35-4.37,4.07a4.82,4.82,0,0,1-4.07-1.14c-2.41-2.8-5.23-4.69-9.15-4.25A30,30,0,0,1,59,75a25.32,25.32,0,0,0-12.09-4.9c-1.61-.23-3.29-.21-4.41-1.69s-.49-3.61-1.75-4.92c-2.23-1.55-3.05,7.66-5.85.62-.33-.67-.67-1.33-1-2-1.48-1.55,1.06-2,.86-3.18C34.35,56.77,33.42,55.07,30.88,55.07Z"/><path class="cls-9" d="M28.88,24.08h-2c-2.24.06-3-.92-2-3,2.5.21,3.19-1.19,3-3.38-.34-3.78-.35-7.62-1.1-11.32s1.63-4.48,3.73-4C40,4.4,49.31.81,58.7,2.08c1.75.24,3.7-.62,5.17,1l-.54.56c-3.74,1.83-7.34-.8-11,0,.07.77,1,.12,1.35.09,2.19-.17,4.54-.47,5.63,1.93,1,2.24-.83,3.7-2.2,5.09-2.2,2.23-4.23,4.67-7,6.28-1,.57-2.25,1-2.13,2.45s1.38,2.16,2.63,2.68a25.92,25.92,0,0,0,3.4.69c1.18.31,3,.2,2.76,2.09-.17,1.52-1.62,1.94-3,2.22a5.33,5.33,0,0,1-2.46.17C44,25.24,36.24,25.91,28.88,24.08Z"/><path class="cls-9" d="M221.86,3.08c-4.45,2-9.21,1.34-13.66.74-11.47-1.53-22.94-.25-34.39-.71-2.42-.1-3.81.95-2,3.25,1.54,2,.18,5.17,3.06,6.49.61.28.52,1.26-.19,1.63-.53.27-1.52.55-1.8.29a17.39,17.39,0,0,1-2-2.69c-2.16.2-3.29,2.86-5.72,2.43-1.32-1.3-3.44,1.64-4.54-.84,0-1.4.54-2.86-.46-4.15-.41-.92-.79-1.85-1.13-2.87-.51,1.52.45,4.15-1.57,4.25-2.52.12-3-2.68-3.89-4.54-.18.85.39,1.69.33,2.59-.08,1.34,0,2.84-1.58,3.35s-2.34-.86-3.09-2a7.42,7.42,0,0,1-1.34-2.66c-.6-2.9-2.41-3.49-5.11-3.39S137.85,5,137.09,8a8.26,8.26,0,0,1-.52,1.41c-.74,1.68-1.42,3.83-3.78,3.07-2.52-.82-1.34-2.95-1-4.68a4,4,0,0,0,.14-1.46c-.86,1.81-1.66,4.54-3.84,1.23-1-1.52-1.74-1.91-3-.92-3.85,2.9-7.36.71-10.71-.88-3.57-1.7-6.42-2.1-10,.57C101.41,8.55,97.52,10,93.52,8a4.72,4.72,0,0,0-2.92-.53C82.66,9.26,75.37,4.55,67.52,5.24c-1.36.12-3.58.47-3.65-2.16h0Q142.88.74,221.86,3.08Z"/><path class="cls-10" d="M244.84,68.08c-1.39-1.37-.56-6.06,1.18-6.62,3.15-1,3.15-1,1.66-4.12a13.12,13.12,0,0,1-.46-1.38c3.23.55,3.23.55,4.2-3.32,1.62,0,2.63,2,4.42,1.42-.72,3.47-4.34,6-3.38,10,.76,3.93-2.26,5.83-4.39,8.21a1.38,1.38,0,0,1-1.67-.92C246.11,70.16,247.26,68.27,244.84,68.08Z"/><path class="cls-11" d="M247.57,72a32.55,32.55,0,0,0,4.89-7.93c4.57-6.5,7-14,10.34-21.16.62,8-3.95,14-7.9,20.19-.18,5.06-3.75,8.65-5.72,12.92-.68,1.49-2.35,1.79-3.6.08C244.78,74,246,72.92,247.57,72Z"/><path class="cls-12" d="M34.89,64.06c1-.06,1.4,3.11,2.6.62.82-1.7,1.26-4.22,3.35-3.63,1.76.5,2.09,3,2,5.09,0,.65,0,1.3,0,2C42.73,70,39.22,70.33,40.65,73a2.85,2.85,0,0,1-.61,1.2c-2.42.49-2-2-3.18-2.94L34,65.05Z"/><path class="cls-7" d="M24.88,21.08a3,3,0,0,0,2,3c1,5.4-3.58,9.68-3,15q-1.5-5.51-3-11c.07-.68,3.23.1.82-1.73a13.1,13.1,0,0,1-1.81-2.26C19.72,20.06,23.33,22.28,24.88,21.08Z"/><path class="cls-13" d="M30.88,55.07c1.93.35,1.62-2.3,3.49-2.5.82,2.21.76,4.63,2.17,6.76,2.2,3.32-3,.59-2.66,2.74A22.64,22.64,0,0,1,30.88,55.07Z"/><path class="cls-8" d="M19.89,24.09c.83.5,1.63,1.39,2.47,1.43,2.33.13,3.07,1.39,2.06,3.14-1.29,2.23-2.32-.45-3.54-.58A6.69,6.69,0,0,1,19.89,24.09Z"/><path class="cls-10" d="M261.86,38.07c-.31-2-2-4.65,2-5A5.76,5.76,0,0,1,261.86,38.07Z"/><path class="cls-10" d="M258.84,47.07c.44-1.76-1.17-4.34,2-5C260.43,43.83,260.21,45.68,258.84,47.07Z"/><path class="cls-14" d="M23,79.92c-6.48-11-13-22.08-16.14-34.68,2.1-.1,2.37-2.55,4.24-3,2.1,5.38,5.85,10.51,4.85,17.07a1.85,1.85,0,0,0,1.63,2.45c3.63.79,4.49,3.36,3,6.73a1.88,1.88,0,0,0-.06.49l1.41,0c.65-3.58-2.06-5.88-3.56-8.53-1.65-2.92-1.74-6.54-3.38-9.24-1.79-2.95-1-6.92-3.94-8.95a4.88,4.88,0,0,1,1.81-4.17C18.06,52.79,24.13,67,33.53,79.64c1,1.31,2.11,2.52,3.17,3.77,3.39,1.49,4.77,4.91,7.1,7.42,4.51,4.84,9.59,9.06,14.52,13.44a53.67,53.67,0,0,0,6.37,4.84,11,11,0,0,1,1.1.79,39.46,39.46,0,0,0,8.59,5.64c.66.36,1.3.75,1.94,1.16C89.86,124,104,129.58,119.24,132.21c23.75,4.08,47,2.32,69.59-6a40.11,40.11,0,0,0,7.66-2.86,147.41,147.41,0,0,0,19.95-10.86c4.77-2.78,8.91-6.39,13.14-9.9,1.5-1.23,2.93-2.78,5.08-3,1.18,3.42,3.51,1.91,5.71,1.41,1.63-.37,3.42-2.6,5,.16-1,4-4.43,6.06-7.16,8.55-2.31,2.1-4.73,4.11-7.14,6.11a204.14,204.14,0,0,1-24.88,15.43,137.09,137.09,0,0,1-47.64,13.66,153.24,153.24,0,0,1-34.76-.56C111,142.58,99,138.63,87,134.37c-4.39-1.56-8-4.62-12.51-6-2.61-1.44-5-3.22-7.7-4.55-8.43-5.14-15.71-11.74-23-18.26-2.68-3.4-6.81-5.5-8.64-9.66l0,0a30.37,30.37,0,0,1-5.56-5.82A55.17,55.17,0,0,1,23,79.92Z"/><path class="cls-15" d="M58,105.12A96.05,96.05,0,0,1,36.7,83.41c1.42-2-.4-3.1-1.35-4.11-2.47-2.62-3.48-4.71.88-6.32.38-.14.43-1.15.63-1.76,1.73.26,1.45,2.49,2.93,3,4.51,2.59,6.41,7.65,10.26,10.89,1.61,1.35,3,3,4.55,4.43a111.77,111.77,0,0,0,25.2,20.22,4.4,4.4,0,0,1,2.36,2.45c-1.92,2.34-4.13,4.25-7.23,4.83l-1.2-.7c-.07-.15-.22-.32-.19-.45,1.37-6.11-.25-7.46-6.84-5.62a4.24,4.24,0,0,1-1.94,0l0-.06A25,25,0,0,0,58,105.12Z"/><path class="cls-16" d="M245,101.37c-3.9-.4-7.1,1.72-10.66,2.85-1-1.39,2.23-2.69.35-4.24.05-3.3,3.14-4.46,4.72-6.68a132.2,132.2,0,0,0,19.35-25.66c1.15-2,2-4.19,4-5.59,5.78-10,9.17-20.9,12.27-31.92,2.63.53,2.31,2.87,1.79,4.22-1.63,4.27,0,7.57,2.36,10.84-3.48,13.31-10.35,25-17.42,36.59C257.75,89.68,253.07,97,245,101.37Z"/><path class="cls-17" d="M262.73,62.05C257.24,74.22,249.38,84.72,240,94.13c-5.67,4-10.24,9.2-15.77,13.35a9.48,9.48,0,0,1-7.22,2c-.43.09-.86.14-1.3.19-1.54,0-2.93.73-4.43.94a1.78,1.78,0,0,1-1.88-1.64,3.23,3.23,0,0,1,1.61-2.4,150,150,0,0,0,27.54-24.39,11.47,11.47,0,0,1,2.31-1.9,11.8,11.8,0,0,0,3.81-3.63,3.65,3.65,0,0,1,1-.91c2.05,1.44,3.12-.16,3.59-1.58,1.31-4,3.83-7.39,5.68-11.11.73.17,1.24,2.28,2.28,0,.76-1.68,2.48-2.94,3-5.58C261.1,59.37,260.89,61.4,262.73,62.05Z"/><path class="cls-18" d="M279.15,45.19c-3.4-1.87-5.49-4.37-4-8.53.77-2.2,1.45-4.38-.11-6.53a4.33,4.33,0,0,1,.72-3.35c3.36-2.87,2.87-7,3-10.66.11-4,1.28-7.86,1.2-11.86,0-1.77,1-2.27,2.65-1.85,1.3.32,2.27.26,2,2.38-1,9.69-1.43,19.43-3.62,29-.68,3-4.07,5.81-1.12,9.25A2.15,2.15,0,0,1,279.15,45.19Z"/><path class="cls-19" d="M39.93,73.05c-1.7-4.27-1.7-4.27,3-5,6,1,12.1,1.77,17,6a20.64,20.64,0,0,1,.24,8.68c5.08-.2,9.38-.46,13.54,3.89,3.18,3.32,8.85,4.11,13.1,6.72,1.94,1.19,4.54,1.48,5.27,4.12.32,1.16,1.15,1.12,1.92,1,7.87-1.17,13.85,3.86,20.59,6.33a31.66,31.66,0,0,0,9.66,2c11.94.6,23.84.65,35.8.15a40.28,40.28,0,0,0,18.86-5.59c5.14-3,10-2.63,15-2.23-.83-.6-2.61-1-2-3,16.21,3.15,25-8,34.29-18,3.94-4.24,9-6.53,13.75-9.49,1.73-1.09,3.69,3,4.94-.51,1-.28,2.25-1.71,3.1-.55s-.73,2.33-1.1,3.53c-2.78,8.18-10.52,12.41-15.21,19.08a2.83,2.83,0,0,1-4,.69c-1.5-.93-1.31-2.18-.18-4.08-3.09,2.84.91,5.22-.58,7.39s-4.89.52-6.68,2.68a7.08,7.08,0,0,0-1.71,3c-.44,1.93-1.42,3.33-3.55,3.59-1.74-.7-1-2.42-1.59-4.65-2.64,6-8,7.42-12.6,9.42-3.27,1.44-7,2.08-10.44,3.67-6.14,2.82-12,6.09-18,9.19a14.59,14.59,0,0,1-5.27.12,14.4,14.4,0,0,0-5.43.31c-1.6.29-3.19.31-3.32-1.81-.11-2,1.39-2.54,3-2.5,2.71.07,5.49-.6,7.46.31-4.23-.49-9.16-1.7-13,3a3.42,3.42,0,0,1-.77.63c-4.22,2.91-20.89,2.92-24.86-.34-2.89-2.36-6-3.76-9.58-3.27-10.58,1.43-19.86-2.19-28.79-7.16-2.19-1.22-4.57-.65-6.79-1.26a4.13,4.13,0,0,1-1.27-.69,4.2,4.2,0,0,0-3.17-2.75c-4.92-.8-7.74-4.78-11.3-7.58-1.81-1.42-3.72-.87-5.58-1.2-3.79-.58-5.44-4.13-8.32-6-3.89-2.83-6.08-7.22-9.59-10.4-2.27-2.06.34-4.22-.18-6.31C43,78.72,41.62,74.9,39.93,73.05Z"/><path class="cls-20" d="M216.86,21.08c5.78-2.44,11.51-5.1,18-5h4c7.87,0,11.72,6,9.65,13.85a51.74,51.74,0,0,1-13.8,23.44c-5,5-10,10.3-15.35,15.13-6.34,5.76-14.23,8.64-20.77,13.86-2.65,2.11-6.33,5.43-11,3.87a2.58,2.58,0,0,0-2.23.58c-.76.87-.15,1.84.49,2.67,1.69,2.18,3.36,4.37,5,6.56-1.71,1.53-3.07.38-4.41-.62-3.75-2.77-7.74-5.21-11.22-8.33a6.56,6.56,0,0,1-1-1c-1.22-2-3.2-3.19-5.12-4.41a6.62,6.62,0,0,1-1.39-1.6,9,9,0,0,0-1.92-2.26c-1.11-1.13-3-2.19-1.6-4.11a3.94,3.94,0,0,1,4.94-1.35c2.67,1.24,4,.75,6.1-1.55,2.36-2.59,5.2-5,9.85-4.59a10.43,10.43,0,0,0,10-5.53,10.24,10.24,0,0,1,6.58-4.91,17.23,17.23,0,0,0,10-7,12.22,12.22,0,0,1,3.9-3.81C222.46,41,222,34.32,221.39,27.8c-.27-3-1.81-2.55-4.17-1.3-4.24,2.24-8,5.7-13.2,5.87-.78-3.64,2.56-4.7,4.43-6.31A28.23,28.23,0,0,1,216.86,21.08Z"/><path class="cls-21" d="M174.87,86.05c4.19,2.84,8.44,5.59,12.51,8.59,1.13.83,2.07,1.55,3.49,1.4l1,0c1.24,2.83,5,2.41,6.52,5-.9,1.45-2,.92-3,.47a16.54,16.54,0,0,0-15.35.8c-5.37,2.87-10.9,6.28-17.55,5.77-5.49-.42-10.9.6-16.35.94-8.8.55-17.51-1.33-26.35-1.1-4.43.12-9-2.31-12.3-4.6-5.69-4-11.44-3.31-18.17-3.26,2.65-2.57,1.9-4.07-.91-4.68-5.2-1.11-8.77-5.84-14.3-6.31A4.24,4.24,0,0,1,71,86.77c-1.69-3-6.18-3.86-9.45-1.84a1.4,1.4,0,0,1-2.28-.73C58,81,60.44,77.34,57.92,74.3l1.95-.23,9,6c3.8-.46,6.19,2.24,9,4a6.62,6.62,0,0,0,4,1,29.45,29.45,0,0,1,6.82.6,23.24,23.24,0,0,0,16.79-2c1.58-.79,3.27-1.68,5.19-.87.74,4.29-3.14,4.11-5.35,5.55-2,1-4.49.82-6.23,2.81s-4,0-5.67.2c3.37,1.44,7,.69,10.82.37,3.48-.3,7.83-.78,7.65,5-.06,2,1.46,2,2.81,2,14,0,27.94.12,41.91-.07a3.78,3.78,0,0,0,1.95-.3c5.4-3.6,11.45-3.87,17.65-3.75,2.76.06,3.07-1.5,1.33-3.49C176.42,89.53,174.25,88.52,174.87,86.05Z"/><path class="cls-10" d="M255.83,42.72c1.31,2.15,1.21,4.31.54,7C254.11,47.08,254.79,44.9,255.83,42.72Z"/><path class="cls-22" d="M216.86,21.08c-4.47,3.5-9.38,6.49-13,11-3.4,4.39-8.37,6.39-13.28,8.26-4,1.52-8.19,2.69-12.28,4a14,14,0,0,1-7.72.69c-3.44-.74-6.41,1.7-9.73,2.19-1.28-1.81-.4-4.1-1.32-6-1.09-3.61-4.47-5.7-6-9-.66-1.4-2.23-1.3-3.53-1.34-2.83-.07-3.76-1.15-3-4.07,1-3.66,2.76-7.1,3-11a2,2,0,0,1,1.79-2.07c1.49-.1,2,1.09,2.17,2.24.4,2.58.85,4.62,4.25,2.78,1.26-.69,2.2.4,2.3,1.76s.08,2.63.25,4,.38,2.9-1.16,3.45c-1.36.49-1.79-1.16-2.66-1.82-.39-.3-.75-.64-.94-.74,3.79,6.46,9.71,4.45,15.45,3.27,1.59,1.13,2.88,2.18,1,4.28a20.27,20.27,0,0,0-3.12,5.45c1.14-1.95,2-4.08,3.52-5.78s.56-2.62-.85-3.52c-1.34-1.21-1.22-2.91-1.5-4.48a3.09,3.09,0,0,1,.2-1.34,1.61,1.61,0,0,1,2.56-.15c-1.2-2.22-3.1.35-4.4-.76a4.25,4.25,0,0,1-.89-1.05c-.4-2.67-4.35-3.86-3-7.24,2.38.46,2.76-5.06,6-2a3.65,3.65,0,0,0,0,1.47c1,2.22-4.12,1.27-2,3.72,1.86,2.2,3.45-.94,5.56-.76-.86,3.84,1.95,4.39,4.49,4.46a55.58,55.58,0,0,0,11.85-.52c4-.76,8.24-.3,12.38-.35,1,0,2.11-.06,2.5,1.12a2.16,2.16,0,0,1-1.14,2.51c-1.18.8-3.12,1.34-1.16,3.18,1.57,1.48,2.16-.33,3.16-1C209.61,23.66,212.83,21.49,216.86,21.08Z"/><path class="cls-7" d="M164.86,14.08c.53,2.83,4.16,4,3.87,7.26-.32.09-.69,0-.95.11-1.62.69-3.34-3.68-4.7,0-.78,2.06-1.63,4.67.75,6.32,2.56,1.77,4.23,0,5.62-2.06a5.8,5.8,0,0,1,1.27-1.48c1.95,1.26.84,3.24,1.15,4.88h0c-5.86,2.66-11.51,4.11-16.09-2.33-1-1.4-3.33.15-4.56-2,3.5-1.39,6.09-.71,8.09,2.94,1.29-3-1.63-5.45.45-7.84-2.78-1.11-4,4.74-6.31,1.13-1.07-1.63-.63-4.24-1.53-6.43-.55,5.29-3.18,9.82-4.41,15.18,9-1.44,9.72,6.59,13.23,11.51-2.45,1.1-3.4-4-5.81-1.62-1.53,1.52-.55,4.15-1.14,6.21a3.41,3.41,0,0,1-.71,1.29c-.16,0-.43.16-.46.12-3.4-5.72-10.09-5.11-15.07-7.78-1.43-.76-3-.95-3.77-2.77-.92-2.26-.05.91-.57.24a4.07,4.07,0,0,1-4.58.08c1.14-6.91,1.15-6.87-6.47-5.21-1.72.38-3.71.93-4.5-1.58,2-1.91,5.37-2.29,6.33-5.45.1-.66,0,.17.17-.47.65-2.37,1-5.14-1.51-6.14-2.3-.91-2.93,2.1-4.21,3.5a1.7,1.7,0,0,1-2,.49c-10.69-6.23-21.79-6-33.11-2.05a26.34,26.34,0,0,1-4.27,1.22,16.45,16.45,0,0,0-7.6,3.23c-5,3.55-10.68,5.86-17,5.9-3.33-.29-6.74.6-10-.78l-.6-.6c-3.57-1-7.1-2.12-10.7-3-1.63-.38-3.19-.68-4.3-2,6.68.49,13.5-1.2,20.08,1.81,1.92.88,4.81.68,8.25-1.08-4-1.39-7.44.07-10.05-2.73s-2-4.62.79-5.62C52,15,54,11.45,57,8.89c.81-.71,2.18-1.39,1.58-2.8A3.17,3.17,0,0,0,55.3,4.25c-1.5.11-3,.52-5.06-1.17H63.87c.83,1.08,2,.92,3.19,1,4.48.38,9.21-1.25,13.33,2.31,1,.85,3.49,0,5.29-.14,3.31-.2,6.57-.58,9.76,1,3.46,1.74,7-.59,8.76-2.37,3.49-3.58,8.19-2.65,9.78-1,2.52,2.7,2.9.16,4-.43,1.42,1.06.45,2.7,1.49,4.08,1.84-.68,4.39-1.24,5.49-2.32,4.81-4.7,3.57,0,4,2.26.05.25.36.45.57.7,2.65-.64-.06-6.33,3.81-4.76,2,.81-1,3.89-.84,6.1.05.76-.64,1.74.34,2.15,1.19.49,1.78-.37,2.09-1.45.18-.64.47-1.25.69-1.87A9.14,9.14,0,0,1,147.2,3.08c1.66.67.59,2,1.13,2.94,1.09,1.84,2,3.79,3.12,6,2-1.81,1.3-3.44.84-5.14-.31-1.18-2.38-2.82.07-3.58s2.39,1.44,2.57,3.1,1.25,2.63,2.36,3.76c1.79-2.19-1-4.36.31-7,1.37,2.46,4.55,3.47,3.27,6.92a6.47,6.47,0,0,1,0,3c.82,1.07,1.71,1.28,2.76.28S164.72,13.37,164.86,14.08Z"/><path class="cls-20" d="M54.88,29.08a27.28,27.28,0,0,0,16.75-6.31,12.28,12.28,0,0,1,7.25-2.69c.61.66,1,2,.47,2.19-4,1.62-5.59,6.94-10.57,7.07a17.47,17.47,0,0,0-3.44.54c-3.46.78-4.92,2.28-2.77,5.86,5.53,9.24,12,17.47,22.48,21.48a6.12,6.12,0,0,1,3.23,2.24c2.33,3.84,6,5.74,10.1,6.61,6,1.28,10.56,5.39,16,7.78,4,1.75,4,3.9.58,6.5a28.53,28.53,0,0,0-2.83,2,3.57,3.57,0,0,1-1.26.67,93.63,93.63,0,0,1-9.5,3.87c-6.67,1.94-13.18.81-19.49-1.85,1.24-1.15,4.06-1.61,3.31-3.62S82,78.8,79.6,79.29c-.78.16-1.72.86-2.27-.06-4.72-7.89-13.25-12-18.68-19.42C55.13,55,49.87,51.4,45.94,46.62a39.6,39.6,0,0,1-6.4-11.69c-1.1-3,2.45-4.17,4.34-5.85h0A25.2,25.2,0,0,0,54.88,29.08Z"/><path class="cls-20" d="M77.88,84.05c-3.48-.26-5.73-3.29-9-4C73.23,78.34,75.89,80.46,77.88,84.05Z"/><path class="cls-13" d="M38.13,54.3c.25.6.56,1,.55,1.38,0,.73-.51,1.15-1.19.77a1.35,1.35,0,0,1-.34-1.19C37.22,54.94,37.69,54.7,38.13,54.3Z"/><path class="cls-1" d="M160.86,13.08a2.67,2.67,0,0,1,0-3C164,11.08,162.42,12.08,160.86,13.08Z"/><path class="cls-23" d="M166.87,120.05h6c6.65,1.62,11.78-2.41,16.88-5.26,4.57-2.55,9.59-3.82,14.18-6.33,3.5-1.92,6.6-5.1,11-5.41a4.47,4.47,0,0,0,2.41-3.79c.52-3.7,3.42-5.57,7.2-5.05,2.65.37,1.93-.94,1.33-2.13-1.17-2.31-1.43-4.4.78-6.23.71-.6,1.39-1.76,2.44-.83s1.17,2-.22,2.84c-.79.46-2.21.63-1.06,1.94.89,1,2.05.92,3-.15a23.54,23.54,0,0,0,3-3.32c3.5-5.86,9.76-9.32,13.14-15.27l.72.94c-.64,1.27-1.29,2.53-1.94,3.79l0,.07C244.81,78,243,79.42,241.41,81c-9.39,10.63-19.7,20.21-31.68,27.89-1.09,2.25-3.15,3.34-5.23,4.43-37.66,19.69-76,20.89-114.94,4.07-2.83-1.22-6-2.1-7.73-5.16a112.37,112.37,0,0,1-28.28-22,1.57,1.57,0,0,1,2.31-.14c3.07,1.47,4.61,5,8,6a38.29,38.29,0,0,1,6.49,5.29c2.55,2.34,5.21,4.59,9.13,4.07,2.05-.28,3.34,1.06,4.38,2.63h0c7.32,2.07,12.55,8,19.88,10.36,10.24,3.32,20.41,5.73,31.25,5.37,6.44-.21,13-.7,19.09.48.73.75.9-.41.52.14-.1.14-.18.07-.36,0-1.56-1-2.42-2.08.06-3a6.9,6.9,0,0,1,4.38,0c3.51,1,7.05,1.92,10.45,1.2-.77-.21-2.14.53-3-.34S164.83,120.13,166.87,120.05Z"/><path class="cls-24" d="M55.86,90.06l-2.31.14c-5.19-4.81-10-9.91-13.76-16,.05-.39.09-.78.14-1.17,2.6,2.3,4.88,2.85,6.5-1.56C45,80.3,50.75,85,55.86,90.06Z"/><path class="cls-25" d="M81.83,112.2c11.43,5.32,22.82,10.78,35.39,13,32.05,5.56,62.5,1.58,90.71-15.47a16.32,16.32,0,0,1,1.8-.83,2.17,2.17,0,0,0,2.11,1.2c1.31-.46,2.71-.57,4-1h0a2.29,2.29,0,0,1,2.87.92c.94,1.81-1.31,2.16-1.78,3.36A86.36,86.36,0,0,1,197,124.13c-2.4,1-5.1,1.24-7.21,2.94-14.9,6.45-30.66,8.55-46.67,8.6-24.38.06-47.31-5.75-68.23-18.63C76.9,115,78.79,112.76,81.83,112.2Z"/><path class="cls-4" d="M22.21,70.44c-3-.2-3.06-.21-2.09-3.59.66-2.3-.17-4.36-2.38-4.28-4.18.14-3.78-2.84-3.29-4.84.66-2.67.78-4.38-1.25-6.74-1.81-2.09-.51-5.81-2.27-8.44-.44-.65.54-.74.89-.79,1.14-.16.57.78.77,1.28,2.09,5.31,4.12,10.65,6.42,15.87,1.4,3.17,3.35,6.09,4.85,9.22C25,70.55,24.88,70.61,22.21,70.44Z"/><path class="cls-25" d="M64.76,110.3c4.68-4.5,8.58-1.86,12.51,1.45-1.26,1.46-3,2.58-3.54,4.59C70.48,114.71,67.28,113,64.76,110.3Z"/><path class="cls-26" d="M216.94,113.34c1.1-1.8,1.87-3.51-1.09-4.28,9-.71,14.06-7.29,19.73-13A6,6,0,0,1,240,94.13L234.66,100C228.75,104.43,223.6,109.89,216.94,113.34Z"/><path class="cls-25" d="M58,105.12a8.43,8.43,0,0,1,6.78,5.12A19.27,19.27,0,0,1,58,105.12Z"/><path class="cls-27" d="M189.83,127.07c1.72-2.66,4.49-2.73,7.21-2.94A16,16,0,0,1,189.83,127.07Z"/><path class="cls-11" d="M241.41,81a16.48,16.48,0,0,1,4.25-5.11C245.7,78.78,243.73,80,241.41,81Z"/><path class="cls-26" d="M215.86,109.06c-1.15,1.07-2.38,1.84-4,1A2.86,2.86,0,0,1,215.86,109.06Z"/><path class="cls-5" d="M280.81,2.76c2.71,2.94,1.87,4.81,1.29,6.67C280.31,7.84,281.05,5.94,280.81,2.76Z"/><path class="cls-24" d="M166.87,120.05c-.57,3.83,3.3.67,3.81,2.32-5.55,4.18-11.23-1.36-17-.11.5,2.68,2.93,1.12,4,2.23-18.43,3.2-42.24.19-59.07-6.78A35.4,35.4,0,0,1,88,110.46c-.73-.68-1.54,0-2.32.16-2.44.48-2.53-.77-1.78-2.56,7.56-1.47,13.09,3.92,19.56,6,3.31,1.09,6.26,2.12,9.85,2.11,5.16,0,11-2,15.38,1.79,4.14,3.59,8.32,4.35,13.39,3.14a11,11,0,0,1,4.88.49,9,9,0,0,0,8.26-2.15c4.77-4.06,9.41-4.73,16.41-1.4-4.08,0-7.34,0-10.6,0-1.11,0-2.19.5-1.89,1.7.38,1.51,1.4.42,2.3.33C163.21,119.94,165.05,118.58,166.87,120.05Z"/><path class="cls-24" d="M214.87,103.05c-6.44,4.24-12.6,8.79-20.54,10.44-2.9.6-5.66,3.3-8.58,4.92s-5.83,2.2-8.69,3.42c-1.94.83-3-.68-4.2-1.78,4.16-4.49,9.73-6.26,15.31-8.11a15.13,15.13,0,0,0,5.07-2.92c1.68-1.5,3-3,5.3-1.08.53.42,6.33-3.61,6.75-4.53a1.52,1.52,0,0,0,0-.48c5.62,2.7,4.83-6.89,10.53-4.58C216.93,99.65,213,101.15,214.87,103.05Z"/><path class="cls-24" d="M83.87,108.06c-2-.8-3.69-2.48-6.35-1.29-1,.42-2.91-.63-4-1.5-3.51-2.73-7.6-4.9-9.62-9.2,2.64-.18,5.2-1.81,7.28,2.14.95,1.8,5.32,1.72,5.23,5.51,2.08-.55,4.26,1,5.67.83C86.82,104.13,83.26,107,83.87,108.06Z"/><path class="cls-24" d="M142.44,116.12c1.55,0,2.55-.05,3.54,0s1.63.44,1.6,1.48-.84,1.4-1.71,1.34-1.92-.41-2.89-.56c-1.64-.27-4.54,2.29-4.63-1C138.28,115,141.43,116.7,142.44,116.12Z"/><path class="cls-24" d="M85.29,100.91c.07,1-.68,1-1.29,1s-1.4,0-1.56-.77c-.2-.94.65-1,1.26-1A1.35,1.35,0,0,1,85.29,100.91Z"/><path class="cls-28" d="M110.87,82.07a1.66,1.66,0,0,1,.23-.44c5.78-5,5.56-4.66-1.1-8.64a59.26,59.26,0,0,0-17.33-7.18A1.9,1.9,0,0,1,91.44,65c-3.25-6.71-11.19-7-15.88-11.63-5.84-5.77-12.18-11.17-15.19-19.25-1-2.7-.83-4,2.34-4.63,1.89-.36,3.6-1.75,5.69-1.43,2.45.38,4-.23,4.55-3a2.73,2.73,0,0,1,3.07-2c2.18.11,3-1,2.86-3,10.25-5.08,21.22-4.14,32-3.19,1.72.15,5.45,1.6,5.95,5a39.39,39.39,0,0,0,1.09,8c.42.82,1.26,1.43,2,1.08,3.36-1.62,7.32-.88,11.08-3.05-.45,3.36.13,6.52-2,9.2.7,2.29-1.15,3.66-2,5.4a3.25,3.25,0,0,0,.32,3.73,2.66,2.66,0,0,0,3.14.86c1.42-.54,1.79-1.8,2-3.17.39-2.25-1.39-4.56.22-6.76.51-1.35-.71-3.51,2.08-4-.79,2.71-.61,4.55,2.82,5,4.2.55,7.6,4.35,12.42,3,1.39-.38,1.86,1,1.5,2.39a3.12,3.12,0,0,0,1.24,3.48c2.72.82,5.43-.16,8.15,0,3.51-3.22,7.47-4.74,12.09-2.76,1.2.51,1.75-.16,2.64-.42,9.85-2.87,19.51-6.17,28.18-11.83,4.57-2.38,9.53-4.09,13.39-7.68a2.54,2.54,0,0,1,3.09-.63c1.26.51,2.48.84,2.52,2.6.21,8,1.16,16.1-7.88,20.81-3.22,1.67-4.12,6.15-8.07,7.7-1.89.75-3.47,2.2-5.77,2.39a5.19,5.19,0,0,0-4.34,3c-3,6.14-8,7.67-14.61,7.41-2.51-.1-6.3,2.6-7.13,5.8s-2.12,2.14-3.77,1.28a15.84,15.84,0,0,0-2.57-1.47c-1.54-.46-3.31-.06-4,1.28-.56,1.12,1,1.91,2,2.44a3.44,3.44,0,0,1,2.15,3.09c-1.18,1-2.18.27-3.18-.34-16.14-9.77-32.11-7.26-48,.68C115.55,81.47,113.66,83.61,110.87,82.07Z"/><path class="cls-29" d="M110.87,82.07c5.06-.77,8.44-4.85,13.27-6.4,11.65-3.73,23.07-4.94,34.93-1.13,3.75,1.21,6.41,3.92,9.8,5.52l1,1c1.44,1.89,3.94,2.72,5,5h0l3,4c-1.16,2.47-2.35,2.68-4.37.56-3.94-4.15-6.29-4.06-10.18.41a7.42,7.42,0,0,1-6.48,2.68c-10.6-.23-21.21-.87-31.81.48-2.24.29-4.57.79-6.43-2.09-1.16-1.78-4.31-.51-6.56-.32-3.69.32-6.58-.39-7.16-4.71,2.15-1.12,5-1.24,6-4C110.86,82.72,110.87,82.39,110.87,82.07Z"/><path class="cls-30" d="M174.87,86.06c-1.76-1.57-4.27-2.39-5-5C172.05,82.22,174.6,83,174.87,86.06Z"/><path class="cls-30" d="M104.87,87.07c2,2.59,3.94,4.29,7.81,3.21,3-.83,6.38-.16,9.5-.16.17,2.47-2.1,1.34-2.31,3.16,10.92-1.7,21.83-1.2,32.72-1.2,4.41,0,8.6,1,11.6-4.28,1.95-3.45,9-2.25,10.35,1.66,1.22,3.51,2.19.81,3.32.6,2,.81,3.59,2,2.84,4.46C180,96.8,178,96,176.47,96c-5.28.28-10.83-1.22-15.44,3-.94.86-2.82,1-4.27,1-15.12.06-30.25,0-45.37,0a9.26,9.26,0,0,1-1.86-.4c2.39-5.85,1.35-8-4.63-6.72-5.51,1.18-10.12-.68-15.24-1.62C95.38,92,100,89,104.87,87.07Z"/><path class="cls-31" d="M170.72,24.19c-.08,3.76-1.86,6.28-5.74,5.71s-4.3-3.6-3.63-6.91a14.26,14.26,0,0,0,.3-2c.2-3.62,1.34-4.75,4.29-1.74a22,22,0,0,0,2.79,2.05,1,1,0,0,0,.4.71,5,5,0,0,1,1.61,2.1Z"/><path class="cls-32" d="M160.94,47.08c-2.72,2.45-5.44,2.69-8.15,0,0-.65-.09-1.31-.09-2,0-3.13-.41-7.14,2.5-8.43,2.22-1,3.34,3.31,5.53,4.57A7.74,7.74,0,0,1,160.94,47.08Z"/><path class="cls-7" d="M171.87,29.07c1.53.26,3.35.69,2.44,2.67a63.19,63.19,0,0,1-4.75,8c-.66,1-1.84,1.58-2.89.34s.4-1.43.78-2.17c1.52-2.92,5.61-4.62,4.41-8.86Z"/><path class="cls-7" d="M170.74,24.15l-1.61-2.1c.46-.18,1-.23,1.34-.55,2.28-2.38,3,.74,4.33,1.31.89.38.62,1.65,0,2.12-1.8,1.36-1.61-1.59-2.86-1.46C171.52,23.51,171.14,23.91,170.74,24.15Z"/><path class="cls-33" d="M132.73,37.21c.43,2.26,1,4.51,1.26,6.79a4.17,4.17,0,0,1-2.8,4.73c-2.16.87-3.91.06-5.27-1.62a4.13,4.13,0,0,1,0-5.48c1.06-1.47,2.07-3,3.1-4.48C130.24,36.35,131.5,35.64,132.73,37.21Z"/><path class="cls-34" d="M138.68,24.57c1.1-2.56,1.3-7.33,4.62-7.35,1.91,0,4.06,4.93,4.07,8.31A4.21,4.21,0,0,1,143,30C139.85,30,138.64,27.94,138.68,24.57Z"/><path class="cls-35" d="M117.94,29.92c-2.7-2.35-3.26-5-1.09-8l1-.85a13.42,13.42,0,0,1,1.52-1.91c1-1,2.1-2.25,3.77-1.58,1.42.57,1.66,2,1.64,3.29s1.13,2.81.07,4.22C124.1,28.91,121.79,30.51,117.94,29.92Z"/><path class="cls-36" d="M124.85,25.08c-.11-.49-.23-1-.33-1.46-1.37-6.61-1.37-6.61-6.67-2.56.78-2.72,2.45-5.75,5.26-4.46C126.38,18.09,126.78,21.71,124.85,25.08Z"/><path class="cls-8" d="M54.88,29.08a13.13,13.13,0,0,1-11,0Z"/></g></g></svg>